<mxfile host="app.diagrams.net" modified="2023-06-08T08:29:06.145Z" agent="Mozilla/5.0 (Macintosh; Intel Mac OS X 10_15_7) AppleWebKit/537.36 (KHTML, like Gecko) Chrome/113.0.0.0 Safari/537.36" version="21.2.1" etag="LdMAEq5rgjXy0QUampTE" type="github">
  <diagram name="페이지-1" id="S7a3t8IyoXdhkqSSyjoU">
    <mxGraphModel>
      <root>
        <mxCell id="0" />
        <mxCell id="1" parent="0" />
      </root>
    </mxGraphModel>
  </diagram>
</mxfile>
